<?xml version="1.0" standalone="no"?>
<!DOCTYPE svg PUBLIC "-//W3C//DTD SVG 20010904//EN"
 "http://www.w3.org/TR/2001/REC-SVG-20010904/DTD/svg10.dtd">
<svg version="1.0" xmlns="http://www.w3.org/2000/svg"
 width="18px" height="18px" viewBox="0 0 262.000000 245.000000"
 preserveAspectRatio="xMidYMid meet">

<g transform="translate(0.000000,245.000000) scale(0.100000,-0.100000)"
fill="#fff" stroke="none">
<path d="M1195 2248 c-134 -25 -273 -134 -333 -258 -38 -80 -52 -156 -52 -277
l0 -93 -205 0 c-216 0 -245 -5 -264 -46 -15 -33 123 -1277 150 -1350 28 -73
79 -128 157 -166 l67 -33 575 0 575 0 67 33 c78 38 129 93 157 166 27 73 165
1317 149 1351 -18 40 -47 45 -262 45 l-203 0 -6 128 c-8 187 -50 289 -159 387
-111 100 -264 142 -413 113z m243 -183 c60 -33 111 -84 144 -147 19 -37 23
-62 26 -170 l4 -128 -322 0 -322 0 4 128 c3 107 7 134 26 169 66 127 167 186
307 180 66 -3 90 -8 133 -32z m-628 -684 c0 -77 0 -79 -29 -91 -60 -24 -63
-112 -5 -139 14 -6 68 -11 120 -11 92 0 97 1 125 29 16 16 29 38 29 49 0 25
-35 69 -60 77 -18 6 -20 15 -20 86 l0 79 320 0 320 0 0 -79 c0 -77 0 -79 -29
-91 -60 -24 -63 -112 -5 -139 14 -6 68 -11 120 -11 92 0 97 1 125 29 16 16 29
38 29 49 0 25 -35 69 -60 77 -18 6 -20 15 -20 86 l0 79 155 0 c141 0 155 -2
155 -17 0 -10 -29 -273 -64 -584 -67 -608 -67 -607 -129 -653 -28 -21 -35 -21
-597 -21 -562 0 -569 0 -597 21 -62 46 -62 45 -129 653 -35 311 -64 574 -64
584 0 15 14 17 155 17 l155 0 0 -79z"/>
</g>
</svg>
