<svg id="svg" version="1.1" xmlns="http://www.w3.org/2000/svg" xmlns:xlink="http://www.w3.org/1999/xlink" width="400" height="115.4639175257732" viewBox="0, 0, 400,115.4639175257732"><g id="svgg"><path id="path0" d="M23.167 0.976 L 23.167 1.951 21.892 2.059 C 21.190 2.118,19.405 2.167,17.923 2.167 C 14.478 2.167,14.614 2.078,14.528 4.379 L 14.464 6.125 12.625 6.201 C 10.316 6.296,10.333 6.278,10.333 8.615 L 10.333 10.333 8.615 10.333 C 6.262 10.333,6.273 10.323,6.194 12.629 L 6.131 14.457 4.471 14.537 C 3.216 14.598,2.743 14.685,2.531 14.897 C 2.243 15.185,2.071 18.509,2.019 24.792 L 2.000 27.000 1.000 27.000 L 0.000 27.000 0.000 32.917 L 0.000 38.833 0.981 38.833 L 1.962 38.833 2.070 44.292 C 2.218 51.763,2.055 51.312,4.652 51.460 L 6.131 51.544 6.192 53.332 C 6.274 55.701,6.239 55.667,8.520 55.667 L 10.333 55.667 10.333 57.405 C 10.333 59.687,10.312 59.667,12.679 59.667 L 14.500 59.667 14.500 61.480 C 14.500 63.782,14.438 63.725,17.054 63.833 L 19.059 63.917 19.259 64.808 C 19.581 66.239,20.757 67.326,21.994 67.337 C 22.226 67.339,22.604 67.487,22.833 67.667 C 23.219 67.968,23.536 67.993,27.109 67.996 L 30.969 68.000 31.026 69.661 C 31.108 72.041,30.851 71.905,35.403 71.967 L 39.128 72.017 39.231 72.530 C 39.287 72.811,39.333 73.440,39.333 73.927 C 39.333 75.712,39.603 75.942,41.880 76.102 L 43.466 76.213 43.582 77.315 C 43.806 79.460,44.648 80.091,47.375 80.163 C 47.444 80.165,47.500 82.079,47.500 84.417 L 47.500 88.667 45.579 88.667 C 43.283 88.667,43.333 88.613,43.333 91.094 L 43.333 92.667 37.167 92.667 L 31.000 92.667 31.000 91.037 C 31.000 88.699,30.968 88.667,28.667 88.667 L 26.853 88.667 26.802 83.042 C 26.746 76.987,26.723 76.823,25.865 76.462 C 25.550 76.330,21.631 76.253,12.708 76.203 L 0.000 76.133 0.000 86.483 L 0.000 96.833 0.975 96.833 L 1.949 96.833 2.058 98.609 C 2.118 99.586,2.167 101.259,2.167 102.327 C 2.167 104.902,2.135 104.864,4.369 104.964 L 6.121 105.042 6.208 106.868 C 6.315 109.126,6.259 109.070,8.493 109.139 L 10.304 109.195 10.360 110.925 C 10.436 113.248,10.420 113.234,13.005 113.306 L 15.000 113.361 15.000 114.347 L 15.000 115.333 37.167 115.333 L 59.333 115.333 59.333 114.333 L 59.333 113.333 61.227 113.333 C 63.826 113.333,64.000 113.175,64.000 110.811 L 64.000 109.167 65.724 109.167 C 67.992 109.167,68.000 109.158,68.000 106.779 L 68.000 105.000 69.458 104.998 C 72.207 104.993,72.167 105.062,72.167 100.342 L 72.167 96.833 73.475 96.833 C 76.581 96.833,76.333 98.118,76.333 82.018 L 76.333 68.692 75.951 68.221 C 75.741 67.962,75.439 67.323,75.279 66.802 C 74.930 65.660,74.343 65.109,73.085 64.743 L 72.193 64.484 72.138 62.319 C 72.072 59.719,72.186 59.839,69.792 59.836 L 68.000 59.833 68.000 57.950 C 68.000 55.597,68.068 55.667,65.800 55.667 L 64.000 55.667 64.000 53.854 C 64.000 51.566,64.036 51.602,61.642 51.527 L 59.833 51.471 59.833 50.177 C 59.833 47.517,59.843 47.523,55.172 47.387 L 51.500 47.280 51.500 45.915 C 51.500 43.164,51.954 43.339,44.792 43.336 L 39.167 43.333 39.167 41.858 C 39.167 39.080,39.321 39.167,34.396 39.167 L 31.000 39.167 31.000 33.000 L 31.000 26.833 37.152 26.833 L 43.304 26.833 43.360 28.673 C 43.429 30.902,43.348 30.827,45.708 30.831 L 47.500 30.833 47.500 34.406 C 47.500 38.359,47.564 38.707,48.346 38.980 C 49.786 39.482,73.629 39.169,75.050 38.630 C 75.972 38.280,76.333 36.354,76.333 31.786 C 76.333 27.786,76.038 26.848,74.773 26.823 C 74.356 26.815,74.147 26.671,73.743 26.115 C 73.465 25.731,72.999 25.267,72.708 25.083 L 72.180 24.750 72.169 20.583 C 72.154 14.564,72.181 14.629,69.667 14.528 L 68.000 14.461 68.000 12.659 C 68.000 10.314,68.018 10.333,65.738 10.333 L 64.000 10.333 64.000 8.758 C 64.000 6.284,63.876 6.172,61.125 6.169 L 59.833 6.167 59.833 4.761 C 59.833 2.193,59.809 2.173,56.583 2.168 C 55.208 2.166,53.465 2.117,52.708 2.058 L 51.333 1.951 51.333 0.975 L 51.333 0.000 37.250 0.000 L 23.167 0.000 23.167 0.976 M286.667 55.792 C 286.668 86.477,286.717 112.427,286.776 113.458 L 286.884 115.333 301.192 115.333 L 315.500 115.333 315.500 101.917 L 315.500 88.500 317.583 88.500 L 319.667 88.500 319.670 90.292 C 319.677 94.939,320.273 96.155,322.689 96.453 L 323.750 96.583 323.833 98.369 C 323.942 100.694,323.963 100.717,326.152 100.805 L 327.805 100.871 327.861 102.699 C 327.931 105.009,327.922 105.000,330.282 105.000 L 332.000 105.000 332.000 106.911 C 332.000 109.229,331.934 109.167,334.406 109.167 L 336.167 109.167 336.168 110.625 C 336.168 111.427,336.217 112.815,336.276 113.708 L 336.384 115.333 352.701 115.333 L 369.019 115.333 368.968 110.568 L 368.917 105.803 368.523 105.485 C 368.198 105.222,367.857 105.167,366.565 105.167 L 365.000 105.167 365.000 103.454 C 365.000 101.019,364.982 101.000,362.657 101.000 L 360.833 101.000 360.833 99.179 C 360.833 96.804,360.862 96.833,358.514 96.833 L 356.719 96.833 356.613 94.042 C 356.450 89.765,356.168 89.105,354.417 88.909 C 353.958 88.857,353.340 88.779,353.042 88.733 L 352.500 88.652 352.500 86.909 C 352.500 84.566,352.436 84.500,350.181 84.500 L 348.529 84.500 348.473 82.675 C 348.402 80.378,348.456 80.431,346.159 80.360 L 344.333 80.304 344.333 78.522 C 344.333 77.255,344.265 76.644,344.097 76.404 C 343.967 76.218,343.745 75.620,343.604 75.075 C 343.223 73.606,342.034 72.671,340.542 72.668 C 340.182 72.667,340.167 72.608,340.163 71.208 C 340.156 68.789,339.993 68.344,339.044 68.160 L 338.417 68.038 339.016 68.019 C 340.009 67.987,340.167 67.658,340.167 65.612 L 340.167 63.833 341.974 63.833 C 344.335 63.833,344.333 63.835,344.333 61.460 L 344.333 59.696 346.160 59.640 C 348.472 59.568,348.487 59.553,348.495 57.292 L 348.500 55.667 350.224 55.667 C 352.490 55.667,352.500 55.656,352.500 53.294 L 352.500 51.530 354.244 51.474 C 356.545 51.399,356.565 51.379,356.640 49.092 L 356.696 47.362 358.528 47.306 C 360.842 47.235,360.833 47.245,360.833 44.885 L 360.833 43.167 362.125 43.157 C 364.798 43.138,364.993 42.829,364.997 38.612 C 365.002 33.804,364.643 31.779,363.715 31.392 C 362.383 30.835,355.178 30.974,354.008 31.579 C 353.368 31.910,353.033 32.634,352.892 33.989 L 352.788 34.975 341.686 35.049 C 326.801 35.148,328.129 34.619,327.893 40.542 L 327.781 43.333 325.900 43.333 C 323.686 43.333,323.836 43.186,323.714 45.483 L 323.619 47.292 321.843 47.366 C 319.536 47.461,319.667 47.327,319.667 49.593 L 319.667 51.500 317.845 51.500 C 316.412 51.500,315.968 51.556,315.762 51.762 C 315.524 52.000,315.500 49.659,315.500 26.012 L 315.500 0.000 301.083 0.000 L 286.667 0.000 286.667 55.792 M85.872 10.491 C 84.542 10.707,84.534 10.795,84.513 25.441 L 84.500 34.964 80.675 35.024 C 77.824 35.068,76.795 35.139,76.633 35.300 C 76.392 35.542,76.303 58.011,76.540 58.857 C 76.727 59.521,76.959 59.562,80.917 59.630 L 84.583 59.693 84.586 77.722 C 84.590 100.702,84.509 100.118,87.736 100.451 L 88.615 100.541 88.723 103.812 C 88.878 108.492,88.993 108.749,91.011 108.927 C 92.914 109.095,92.770 108.961,92.900 110.690 C 93.088 113.170,93.114 113.184,97.875 113.290 L 101.167 113.363 101.167 114.348 L 101.167 115.333 116.583 115.333 L 132.000 115.333 132.000 114.333 L 132.000 113.333 132.542 113.330 C 132.840 113.328,133.271 113.182,133.500 113.006 L 133.917 112.686 134.005 104.468 C 134.053 99.948,134.111 96.813,134.134 97.500 C 134.223 100.232,134.415 100.486,136.557 100.714 L 138.139 100.883 138.195 102.761 C 138.262 105.048,138.118 104.905,140.430 104.973 L 142.333 105.029 142.336 106.806 C 142.339 109.148,142.269 109.072,144.472 109.139 L 146.290 109.195 146.394 110.056 C 146.451 110.529,146.498 111.344,146.499 111.866 C 146.501 113.220,146.709 113.333,149.204 113.333 L 151.167 113.333 151.167 114.333 L 151.167 115.333 167.333 115.333 L 183.500 115.333 183.500 114.333 L 183.500 113.333 185.417 113.333 C 186.583 113.333,187.333 113.268,187.333 113.167 C 187.333 113.075,187.408 113.000,187.500 113.000 C 187.595 113.000,187.667 113.500,187.667 114.167 L 187.667 115.333 201.983 115.333 L 216.300 115.333 216.409 113.292 C 216.698 107.914,216.429 35.691,216.119 35.381 C 215.841 35.102,215.124 35.080,204.892 35.034 L 193.963 34.984 193.019 33.992 C 191.844 32.758,191.655 32.759,190.474 34.000 C 189.806 34.702,189.398 35.000,189.105 35.000 C 188.477 35.000,187.833 35.293,187.833 35.579 C 187.833 35.936,187.555 35.896,187.458 35.525 C 187.360 35.148,186.609 35.004,184.716 35.002 L 183.348 35.000 183.258 34.417 C 182.697 30.818,183.336 30.955,167.417 31.031 C 154.224 31.095,155.099 30.912,154.889 33.641 L 154.788 34.951 151.462 35.068 C 146.696 35.236,146.550 35.326,146.513 38.103 L 146.500 39.123 144.741 39.201 C 142.441 39.303,142.434 39.311,142.360 41.574 L 142.304 43.304 140.574 43.360 C 138.116 43.440,138.263 43.171,138.193 47.738 L 138.135 51.464 136.323 51.526 C 133.916 51.609,134.095 51.268,134.024 55.910 L 133.965 59.803 132.322 59.860 C 129.815 59.946,130.092 58.253,130.035 73.881 C 129.983 88.215,129.984 88.244,130.547 88.449 C 131.267 88.711,119.638 88.945,115.708 88.748 L 113.333 88.629 113.333 74.151 L 113.333 59.673 121.542 59.613 C 132.158 59.535,132.794 59.435,133.360 57.743 C 134.140 55.413,134.258 37.740,133.504 36.143 C 133.041 35.161,131.317 35.003,121.042 35.001 L 113.333 35.000 113.333 22.929 C 113.333 12.177,113.305 10.829,113.071 10.595 C 112.793 10.317,87.535 10.220,85.872 10.491 M262.551 31.168 C 262.150 31.330,262.078 31.614,261.909 33.708 L 261.805 35.000 259.694 35.017 C 254.593 35.057,253.871 35.217,253.810 36.324 C 253.794 36.602,253.751 36.519,253.685 36.087 C 253.508 34.931,254.259 34.986,239.326 35.037 C 224.422 35.088,225.169 35.029,224.940 36.176 C 224.800 36.876,224.803 111.026,224.943 113.458 L 225.051 115.333 239.359 115.333 L 253.667 115.333 253.667 93.606 L 253.667 71.878 254.792 71.793 C 257.239 71.608,257.661 70.705,257.665 65.647 L 257.667 63.877 259.425 63.799 C 261.704 63.697,261.697 63.704,261.799 61.425 L 261.877 59.667 271.730 59.664 C 282.796 59.661,282.383 59.705,282.468 58.534 C 282.513 57.918,282.648 57.702,283.510 56.863 C 284.054 56.334,284.500 55.783,284.500 55.640 C 284.500 55.299,283.247 53.881,282.827 53.748 C 282.506 53.646,282.500 53.434,282.500 43.014 C 282.500 32.048,282.469 31.507,281.827 31.163 C 281.441 30.956,263.065 30.962,262.551 31.168 M180.095 59.667 L 183.471 59.667 183.527 61.590 C 183.595 63.914,183.505 63.827,185.875 63.831 L 187.667 63.833 187.667 74.167 L 187.667 84.500 185.875 84.503 C 183.508 84.506,183.599 84.419,183.525 86.743 L 183.464 88.667 181.669 88.667 C 179.490 88.667,179.572 88.586,179.420 90.875 L 179.301 92.667 175.170 92.667 L 171.039 92.667 170.920 91.542 C 170.656 89.058,170.336 88.854,166.526 88.732 C 165.091 88.687,163.673 88.612,163.375 88.567 L 162.833 88.485 162.829 86.784 C 162.816 81.478,162.503 80.793,159.990 80.560 L 158.833 80.452 158.833 74.226 L 158.833 68.000 160.258 68.000 C 162.640 68.000,162.827 67.791,162.831 65.136 C 162.834 63.356,162.755 63.475,164.078 63.250 C 165.472 63.014,166.209 62.283,166.419 60.931 C 166.631 59.561,166.289 59.680,170.219 59.614 C 172.161 59.581,174.418 59.580,175.234 59.611 C 176.050 59.641,178.237 59.667,180.095 59.667 " stroke="none" fill="#fcfcfc" fill-rule="evenodd"></path><path id="path1" d="M376.333 84.677 C 374.091 84.916,373.785 85.184,373.493 87.172 C 373.291 88.538,373.248 109.492,373.438 113.208 L 373.547 115.333 386.773 115.333 L 400.000 115.333 400.000 99.917 L 400.000 84.500 388.792 84.522 C 382.627 84.534,377.021 84.604,376.333 84.677 " stroke="none" fill="#dc8c0c" fill-rule="evenodd"></path><path id="path2" d="" stroke="none" fill="#ecc4100" fill-rule="evenodd"></path><path id="path3" d="" stroke="none" fill="#ecc4100" fill-rule="evenodd"></path><path id="path4" d="" stroke="none" fill="#ecc4100" fill-rule="evenodd"></path></g></svg>